<svg xmlns="http://www.w3.org/2000/svg" xmlns:xlink="http://www.w3.org/1999/xlink" width="500" zoomAndPan="magnify" viewBox="0 0 375 374.999991" height="500" preserveAspectRatio="xMidYMid meet" version="1.0"><defs><clipPath id="585969e5c7"><path d="M 2 8.753906 L 248 8.753906 L 248 366.503906 L 2 366.503906 Z M 2 8.753906 " clip-rule="nonzero"/></clipPath></defs><path fill="#00609b" d="M 372.910156 178.84375 C 372.910156 177.359375 372.414062 175.875 371.921875 174.394531 C 371.425781 173.898438 370.933594 172.910156 370.4375 172.414062 C 369.945312 171.921875 369.945312 171.425781 369.449219 170.929688 L 306.65625 107.644531 C 302.207031 103.191406 295.28125 103.191406 290.832031 107.644531 C 286.382812 112.09375 286.382812 120.5 290.832031 124.949219 L 334.839844 170.4375 L 115.800781 170.4375 C 109.867188 170.4375 104.429688 175.382812 104.429688 181.808594 C 104.429688 187.742188 109.375 193.179688 115.800781 193.179688 L 334.839844 193.179688 L 290.832031 236.199219 C 286.382812 240.648438 286.382812 247.074219 290.832031 251.523438 C 295.28125 255.976562 302.207031 255.480469 306.65625 251.03125 L 369.945312 187.742188 C 370.4375 187.25 370.933594 186.753906 370.933594 185.765625 C 371.425781 185.269531 371.921875 184.777344 371.921875 183.785156 C 372.910156 181.808594 372.910156 180.324219 372.910156 178.84375 Z M 372.910156 178.84375 " fill-opacity="1" fill-rule="nonzero"/><g clip-path="url(#585969e5c7)"><path fill="#00609b" d="M 225.566406 256.964844 L 225.566406 343.984375 L 24.328125 343.984375 L 24.328125 31.003906 L 225.566406 31.003906 L 225.566406 112.585938 L 247.816406 112.585938 L 247.816406 31.003906 C 247.816406 18.644531 238.421875 8.753906 227.050781 8.753906 L 22.847656 8.753906 C 11.472656 8.753906 2.078125 18.644531 2.078125 31.003906 L 2.078125 343.984375 C 2.078125 356.347656 11.472656 366.234375 22.847656 366.234375 L 227.050781 366.234375 C 238.421875 366.234375 247.816406 356.347656 247.816406 343.984375 L 247.816406 256.964844 Z M 225.566406 256.964844 " fill-opacity="1" fill-rule="nonzero"/></g></svg>